# File created by Blade
# Date/Time:  Wed Jan 21 18:40:08 2015
# Frame Rate: 120.000 fps
#------------------------------------------------------
:FULLY-SPECIFIED
:DEGREES
2488
root -2.766743 16.424467 -9.425473 63.777842 -10.645234 24.657405
RightUpLeg -190.888230 -44.210709 53.366546
RightLeg 111.799774 -0.000000 -0.000000
RightFoot -9.627302 48.778095 18.405450
RightToeBase 20.890153 -0.000000 -0.000000
LeftUpLeg -76.743658 42.521726 -25.247100
LeftLeg -6.937260 -0.000000 0.000000
LeftFoot 15.307232 -14.017138 -50.077198
LeftToeBase 8.169747 -0.000000 -0.000000
Spine -33.868254 34.247957 1.315852
RightShoulder -3.176242 18.861784 -27.590637
RightArm -18.525943 12.863028 68.634581
RightForeArm -6.485008 0.000000 25.301051
RightHand 35.571472 -0.000000 -73.133421
RightHandThumb1 -24.326973 -0.000000 -32.862282
LeftShoulder -22.588962 1.827569 47.811956
LeftArm 6.406173 -20.469157 -28.808081
LeftForeArm 7.393135 -0.000000 4.431429
LeftHand -26.168488 -0.000000 24.015209
LeftHandThumb1 -26.253704 0.000000 33.147579
Head -37.078899 -8.292456 14.578641
2489
root -2.777262 16.411605 -9.430229 63.780955 -10.648182 24.645020
RightUpLeg -190.886007 -44.208937 53.341350
RightLeg 111.856590 -0.000000 -0.000000
RightFoot -9.712075 48.831513 18.380930
RightToeBase 20.987425 -0.000000 -0.000000
LeftUpLeg -76.703947 42.539905 -25.153195
LeftLeg -6.936647 -0.000000 0.000000
LeftFoot 15.224027 -13.985772 -50.015619
LeftToeBase 8.181148 -0.000000 -0.000000
Spine -33.904632 34.252588 1.307273
RightShoulder -3.184871 18.938555 -27.629464
RightArm -18.528534 12.872871 68.705761
RightForeArm -6.459142 0.000000 25.181829
RightHand 35.694999 -0.000000 -73.312455
RightHandThumb1 -24.326973 -0.000000 -32.862282
LeftShoulder -22.569839 1.832631 47.841050
LeftArm 6.273545 -20.591843 -28.834979
LeftForeArm 7.401344 -0.000000 4.523592
LeftHand -26.280613 -0.000000 24.134952
LeftHandThumb1 -26.253704 0.000000 33.147579
Head -37.226261 -8.189212 14.581794
2490
root -2.788154 16.400220 -9.434127 63.769196 -10.647548 24.633229
RightUpLeg -190.874813 -44.208693 53.313353
RightLeg 111.916745 -0.000000 -0.000000
RightFoot -9.728268 48.864384 18.375769
RightToeBase 20.795744 -0.000000 -0.000000
LeftUpLeg -76.708522 42.571188 -25.149585
LeftLeg -6.951672 -0.000000 0.000000
LeftFoot 15.194438 -13.987690 -49.900020
LeftToeBase 8.191202 -0.000000 -0.000000
Spine -33.909406 34.270889 1.324487
RightShoulder -3.199111 18.997052 -27.695415
RightArm -18.552401 12.970405 68.779678
RightForeArm -6.531659 0.000000 25.136897
RightHand 35.722174 0.000000 -73.351589
RightHandThumb1 -24.326973 -0.000000 -32.862282
LeftShoulder -22.560683 1.784525 47.816228
LeftArm 6.147038 -20.619117 -28.777950
LeftForeArm 7.409228 -0.000000 4.544567
LeftHand -26.356930 0.000000 24.156329
LeftHandThumb1 -26.253704 0.000000 33.147579
Head -37.368228 -8.141674 14.543847
2491
root -2.799622 16.390301 -9.439362 63.759715 -10.642097 24.626353
RightUpLeg -190.864092 -44.207214 53.276688
RightLeg 111.979188 -0.000000 -0.000000
RightFoot -9.975340 48.873630 18.057717
RightToeBase 20.644915 -0.000000 -0.000000
LeftUpLeg -76.767519 42.597800 -25.205358
LeftLeg -6.945024 -0.000000 0.000000
LeftFoot 15.191824 -14.005316 -49.791368
LeftToeBase 8.217216 -0.000000 -0.000000
Spine -33.913708 34.285245 1.338803
RightShoulder -3.211573 19.100964 -27.779860
RightArm -18.620957 13.051050 68.864999
RightForeArm -6.466421 -0.000000 25.067185
RightHand 35.887229 -0.000000 -73.392788
RightHandThumb1 -24.326973 -0.000000 -32.862282
LeftShoulder -22.538046 1.756128 47.781008
LeftArm 6.006349 -20.695573 -28.743457
LeftForeArm 7.258388 -0.000000 4.608576
LeftHand -26.408589 -0.000000 24.340002
LeftHandThumb1 -26.253704 0.000000 33.147579
Head -37.459717 -8.078254 14.534424
2492
root -2.811200 16.381421 -9.444331 63.751896 -10.641687 24.622650
RightUpLeg -190.852226 -44.217753 53.229237
RightLeg 112.038443 -0.000000 -0.000000
RightFoot -9.608091 48.914857 18.529632
RightToeBase 20.563018 -0.000000 -0.000000
LeftUpLeg -76.849562 42.629234 -25.328711
LeftLeg -6.978493 -0.000000 0.000000
LeftFoot 15.246856 -14.050627 -49.660378
LeftToeBase 8.285135 -0.000000 -0.000000
Spine -33.929674 34.304533 1.333471
RightShoulder -3.190337 19.158616 -27.824604
RightArm -18.711515 13.187938 68.892067
RightForeArm -6.629559 -0.000000 25.089320
RightHand 35.858958 -0.000000 -73.384101
RightHandThumb1 -24.326973 -0.000000 -32.862282
LeftShoulder -22.514353 1.764370 47.756085
LeftArm 5.893824 -20.840765 -28.765194
LeftForeArm 7.245549 -0.000000 4.666162
LeftHand -26.445493 0.000000 24.518420
LeftHandThumb1 -26.253704 0.000000 33.147579
Head -37.554754 -8.032270 14.552382
2493
root -2.823641 16.373441 -9.449066 63.740395 -10.636375 24.624048
RightUpLeg -190.844546 -44.231020 53.185716
RightLeg 112.099471 -0.000000 -0.000000
RightFoot -10.014742 48.830723 18.153275
RightToeBase 20.868756 -0.000000 -0.000000
LeftUpLeg -76.938697 42.656024 -25.461968
LeftLeg -7.002145 -0.000000 0.000000
LeftFoot 15.299149 -14.111350 -49.494690
LeftToeBase 8.170588 -0.000000 -0.000000
Spine -33.938666 34.309916 1.331211
RightShoulder -3.130745 19.167938 -27.850506
RightArm -18.789427 13.310245 68.929063
RightForeArm -6.663396 -0.000000 25.130103
RightHand 35.908969 -0.000000 -73.333097
RightHandThumb1 -24.326973 -0.000000 -32.862282
LeftShoulder -22.508339 1.783707 47.741337
LeftArm 5.796392 -20.984301 -28.805996
LeftForeArm 7.195905 -0.000000 4.734325
LeftHand -26.544662 -0.000000 24.715896
LeftHandThumb1 -26.253704 0.000000 33.147579
Head -37.645860 -8.026374 14.587848
2494
root -2.835887 16.366890 -9.453741 63.718595 -10.609909 24.632779
RightUpLeg -190.845441 -44.257450 53.170863
RightLeg 112.162299 -0.000000 -0.000000
RightFoot -9.975373 48.813488 18.230760
RightToeBase 20.808790 -0.000000 -0.000000
LeftUpLeg -77.043374 42.677478 -25.628136
LeftLeg -7.043264 -0.000000 0.000000
LeftFoot 15.396082 -14.200678 -49.276959
LeftToeBase 8.115936 -0.000000 -0.000000
Spine -33.940430 34.324449 1.342132
RightShoulder -3.061314 19.141194 -27.866658
RightArm -18.891226 13.388334 68.950407
RightForeArm -6.658889 0.000000 25.246458
RightHand 35.886339 -0.000000 -73.287966
RightHandThumb1 -24.326973 -0.000000 -32.862282
LeftShoulder -22.490468 1.806196 47.708256
LeftArm 5.710452 -21.165012 -28.859996
LeftForeArm 7.231635 -0.000000 4.808700
LeftHand -26.579566 -0.000000 24.718577
LeftHandThumb1 -26.253704 0.000000 33.147579
Head -37.724750 -8.025596 14.613455
2495
root -2.849109 16.360118 -9.458095 63.699239 -10.569298 24.646868
RightUpLeg -190.860337 -44.284375 53.179002
RightLeg 112.230363 -0.000000 -0.000000
RightFoot -9.745784 48.859823 18.499945
RightToeBase 20.574822 -0.000000 -0.000000
LeftUpLeg -77.144044 42.685473 -25.771794
LeftLeg -7.079857 -0.000000 0.000000
LeftFoot 15.489942 -14.275516 -49.083161
LeftToeBase 8.113478 -0.000000 -0.000000
Spine -33.964499 34.342203 1.315009
RightShoulder -3.023178 19.093540 -27.857179
RightArm -18.969048 13.426797 68.955595
RightForeArm -6.575859 0.000000 25.315014
RightHand 35.962300 0.000000 -73.247348
RightHandThumb1 -24.326973 -0.000000 -32.862282
LeftShoulder -22.490235 1.843315 47.724420
LeftArm 5.668899 -21.371071 -28.987879
LeftForeArm 7.274146 -0.000000 4.897095
LeftHand -26.644534 0.000000 24.742684
LeftHandThumb1 -26.253704 0.000000 33.147579
Head -37.828523 -8.084451 14.712862
2496
root -2.863172 16.353389 -9.462371 63.673051 -10.526232 24.659403
RightUpLeg -190.874259 -44.321277 53.192655
RightLeg 112.298009 -0.000000 -0.000000
RightFoot -10.108016 48.798559 18.179497
RightToeBase 20.889034 -0.000000 -0.000000
LeftUpLeg -77.168608 42.686685 -25.814642
LeftLeg -7.116532 -0.000000 0.000000
LeftFoot 15.521363 -14.323715 -48.845576
LeftToeBase 8.055767 -0.000000 -0.000000
Spine -33.985664 34.368133 1.278261
RightShoulder -3.006275 19.035699 -27.830507
RightArm -19.020914 13.449058 68.952885
RightForeArm -6.465652 -0.000000 25.347032
RightHand 36.015424 -0.000000 -73.264187
RightHandThumb1 -24.326973 -0.000000 -32.862282
LeftShoulder -22.476027 1.840240 47.739714
LeftArm 5.612500 -21.511975 -29.084952
LeftForeArm 7.245558 -0.000000 4.993183
LeftHand -26.648610 0.000000 24.820026
LeftHandThumb1 -26.253704 0.000000 33.147579
Head -37.932145 -8.135400 14.841385
2497
root -2.877876 16.347396 -9.466884 63.637635 -10.472912 24.671888
RightUpLeg -190.881466 -44.366085 53.213579
RightLeg 112.363848 -0.000000 -0.000000
RightFoot -10.148601 48.799886 18.168113
RightToeBase 20.917902 -0.000000 -0.000000
LeftUpLeg -77.189759 42.682552 -25.841966
LeftLeg -7.144274 -0.000000 0.000000
LeftFoot 15.550723 -14.368086 -48.504820
LeftToeBase 7.870916 -0.000000 -0.000000
Spine -33.978929 34.389506 1.277087
RightShoulder -3.010493 19.000385 -27.826724
RightArm -19.026176 13.414336 68.979221
RightForeArm -6.462442 -0.000000 25.319853
RightHand 35.894105 -0.000000 -73.402916
RightHandThumb1 -24.326973 -0.000000 -32.862282
LeftShoulder -22.469725 1.841371 47.712240
LeftArm 5.576408 -21.543836 -29.136696
LeftForeArm 7.250663 -0.000000 5.007727
LeftHand -26.630157 -0.000000 24.714418
LeftHandThumb1 -26.253704 0.000000 33.147579
Head -38.035305 -8.208946 14.933320
